<?xml version="1.0" encoding="UTF-8" ?>
<!DOCTYPE svg PUBLIC "-//W3C//DTD SVG 1.1//EN" "http://www.w3.org/Graphics/SVG/1.1/DTD/svg11.dtd">
<svg width="549pt" height="541pt" viewBox="0 0 549 541" version="1.1" xmlns="http://www.w3.org/2000/svg">
<g id="#040404ff">
<path fill="#040404" opacity="1.00" d=" M 44.54 6.63 C 49.31 5.81 54.16 5.99 58.97 5.98 C 204.64 5.99 350.31 5.98 495.98 5.98 C 508.36 5.81 520.94 10.49 529.64 19.43 C 538.29 27.89 542.99 39.96 543.03 52.00 C 543.04 194.35 543.03 336.71 543.03 479.06 C 542.98 486.42 543.51 493.94 541.39 501.09 C 538.15 514.01 528.72 525.10 516.68 530.71 C 510.49 533.39 503.80 535.06 497.03 535.02 C 352.34 535.01 207.66 535.02 62.97 535.02 C 54.96 534.95 46.75 535.60 38.99 533.13 C 29.04 530.45 20.24 524.03 14.34 515.62 C 8.61 507.67 5.91 497.77 5.97 488.03 C 5.96 343.00 5.96 197.97 5.97 52.94 C 5.86 40.83 10.29 28.55 18.91 19.92 C 25.68 12.80 34.88 8.21 44.54 6.63 M 21.83 22.84 C 14.20 30.48 9.97 41.25 10.07 52.02 C 10.04 195.68 10.07 339.33 10.05 482.99 C 10.07 488.02 9.85 493.11 10.97 498.05 C 13.85 512.14 24.66 524.26 38.31 528.75 C 47.21 531.96 56.79 530.65 66.04 530.92 C 210.04 530.90 354.04 530.94 498.04 530.90 C 515.69 530.92 532.30 518.15 537.07 501.21 C 539.35 494.37 538.61 487.09 538.73 480.02 C 538.73 337.34 538.74 194.66 538.72 51.98 C 538.96 46.11 537.50 40.33 535.31 34.92 C 528.80 20.16 513.24 9.83 497.02 10.25 C 348.68 10.22 200.34 10.24 52.00 10.24 C 40.77 10.03 29.57 14.72 21.83 22.84 Z" />
<path fill="#040404" opacity="1.00" d=" M 238.75 66.90 C 255.15 60.31 274.83 62.53 289.30 72.71 C 300.04 79.86 307.46 91.50 310.44 103.96 C 313.24 114.34 311.64 125.17 312.05 135.78 C 332.69 135.70 353.33 135.78 373.98 135.74 C 386.68 135.32 399.76 140.11 408.51 149.48 C 416.57 157.48 420.66 168.83 421.15 180.04 C 421.13 201.64 421.21 223.24 421.11 244.84 C 432.13 244.95 443.37 243.85 454.17 246.63 C 467.14 250.22 479.09 258.45 485.85 270.24 C 494.66 284.58 496.17 303.24 489.63 318.76 C 483.07 335.20 467.64 347.91 450.10 350.68 C 440.57 352.54 430.80 351.45 421.16 351.69 C 421.14 373.45 421.18 395.21 421.14 416.97 C 420.57 429.59 415.04 442.17 405.19 450.25 C 396.34 457.80 384.55 461.36 372.99 460.72 C 352.30 460.71 331.61 460.69 310.93 460.73 C 308.02 460.76 304.88 460.30 302.53 458.48 C 299.97 456.50 299.65 453.01 299.55 450.03 C 299.56 442.36 299.56 434.69 299.57 427.02 C 300.36 411.76 291.80 396.68 278.39 389.42 C 267.75 383.55 254.41 382.84 243.16 387.35 C 228.87 392.89 218.36 407.14 217.63 422.49 C 217.21 431.97 217.61 441.48 217.44 450.97 C 217.28 452.96 216.99 455.05 215.98 456.82 C 214.07 459.74 210.34 460.69 207.04 460.73 C 185.69 460.69 164.34 460.71 142.98 460.72 C 136.33 460.85 129.59 459.98 123.46 457.28 C 107.78 450.93 96.51 435.01 96.19 418.04 C 96.01 395.34 96.18 372.63 96.11 349.92 C 95.95 345.13 98.67 339.33 104.07 339.12 C 115.41 338.70 126.78 339.31 138.11 338.81 C 150.81 336.88 162.32 328.38 168.01 316.88 C 172.70 308.02 173.22 297.44 171.15 287.78 C 166.93 271.27 151.57 258.16 134.44 257.35 C 124.97 257.12 115.50 257.32 106.04 257.25 C 103.58 257.18 100.88 256.77 99.06 254.96 C 96.64 252.66 96.03 249.15 96.10 245.95 C 96.16 223.97 96.07 201.98 96.14 179.99 C 96.11 168.48 100.87 157.14 108.98 149.00 C 117.74 139.97 130.55 135.34 143.04 135.74 C 163.67 135.77 184.31 135.72 204.95 135.76 C 204.89 121.05 203.84 105.38 210.99 91.95 C 216.78 80.56 226.79 71.42 238.75 66.90 M 227.34 83.37 C 218.39 91.66 213.13 103.80 213.23 115.99 C 213.21 125.22 213.18 134.46 213.25 143.69 C 188.84 143.82 164.43 143.70 140.01 143.75 C 127.94 143.90 116.16 150.48 109.78 160.73 C 105.88 166.69 104.04 173.85 104.15 180.94 C 104.16 203.70 104.11 226.46 104.17 249.22 C 114.57 249.30 124.98 249.03 135.38 249.38 C 155.65 250.63 173.92 265.99 178.80 285.67 C 183.38 302.23 178.28 321.01 166.03 333.04 C 156.89 342.28 143.91 347.44 130.95 347.36 C 122.00 347.35 113.05 347.32 104.11 347.38 C 104.20 370.27 104.11 393.17 104.15 416.06 C 103.48 435.12 120.21 452.54 139.27 452.64 C 162.65 452.78 186.03 452.57 209.41 452.75 C 209.60 442.87 209.38 433.00 209.53 423.13 C 210.12 411.57 214.81 400.18 222.83 391.80 C 232.70 381.16 247.52 375.43 261.97 376.48 C 274.58 377.38 286.83 383.23 295.20 392.74 C 303.05 401.52 307.63 413.21 307.59 425.01 C 307.61 434.23 307.61 443.45 307.59 452.67 C 330.98 452.67 354.38 452.72 377.78 452.65 C 391.77 452.48 404.94 443.20 410.22 430.32 C 413.07 423.98 413.23 416.89 413.18 410.06 C 413.11 387.94 413.30 365.83 413.08 343.71 C 422.39 343.65 431.69 343.75 441.00 343.67 C 453.84 343.55 466.59 337.77 474.91 327.94 C 481.98 319.69 485.87 308.83 485.67 297.97 C 485.81 284.52 479.51 271.19 468.99 262.80 C 461.14 256.40 451.08 253.04 441.00 252.80 C 431.72 252.72 422.44 252.78 413.16 252.78 C 413.20 229.53 413.15 206.28 413.19 183.02 C 413.11 176.96 412.51 170.74 409.80 165.22 C 404.37 152.81 391.52 144.19 378.00 143.77 C 353.32 143.69 328.64 143.80 303.97 143.71 C 304.19 137.48 304.03 131.23 304.08 124.99 C 304.20 115.82 304.04 106.27 300.09 97.79 C 293.74 83.12 279.02 72.54 263.06 71.36 C 250.17 70.07 236.71 74.34 227.34 83.37 Z" />
</g>
<g id="#ffc000ff">
<path fill="#ffc000" opacity="1.00" d=" M 21.83 22.84 C 29.57 14.72 40.77 10.03 52.00 10.24 C 200.34 10.24 348.68 10.22 497.02 10.25 C 513.24 9.83 528.80 20.16 535.31 34.92 C 537.50 40.33 538.96 46.11 538.72 51.98 C 538.74 194.66 538.73 337.34 538.73 480.02 C 538.61 487.09 539.35 494.37 537.07 501.21 C 532.30 518.15 515.69 530.92 498.04 530.90 C 354.04 530.94 210.04 530.90 66.04 530.92 C 56.79 530.65 47.21 531.96 38.31 528.75 C 24.66 524.26 13.85 512.14 10.97 498.05 C 9.85 493.11 10.07 488.02 10.05 482.99 C 10.07 339.33 10.04 195.68 10.07 52.02 C 9.97 41.25 14.20 30.48 21.83 22.84 M 238.75 66.90 C 226.79 71.42 216.78 80.56 210.99 91.95 C 203.84 105.38 204.89 121.05 204.95 135.76 C 184.31 135.72 163.67 135.77 143.04 135.74 C 130.55 135.34 117.74 139.97 108.98 149.00 C 100.87 157.14 96.11 168.48 96.14 179.99 C 96.07 201.98 96.16 223.97 96.10 245.95 C 96.03 249.15 96.64 252.66 99.06 254.96 C 100.88 256.77 103.58 257.18 106.04 257.25 C 115.50 257.32 124.97 257.12 134.44 257.35 C 151.57 258.16 166.93 271.27 171.15 287.78 C 173.22 297.44 172.70 308.02 168.01 316.88 C 162.32 328.38 150.81 336.88 138.11 338.81 C 126.78 339.31 115.41 338.70 104.07 339.12 C 98.67 339.33 95.95 345.13 96.11 349.92 C 96.18 372.63 96.01 395.34 96.19 418.04 C 96.51 435.01 107.78 450.93 123.46 457.28 C 129.59 459.98 136.33 460.85 142.98 460.72 C 164.34 460.71 185.69 460.69 207.04 460.73 C 210.34 460.69 214.07 459.74 215.98 456.82 C 216.99 455.05 217.28 452.96 217.44 450.97 C 217.61 441.48 217.21 431.97 217.63 422.49 C 218.36 407.14 228.87 392.89 243.16 387.35 C 254.41 382.84 267.75 383.55 278.39 389.42 C 291.80 396.68 300.36 411.76 299.57 427.02 C 299.56 434.69 299.56 442.36 299.55 450.03 C 299.65 453.01 299.97 456.50 302.53 458.48 C 304.88 460.30 308.02 460.76 310.93 460.73 C 331.61 460.69 352.30 460.71 372.99 460.72 C 384.55 461.36 396.34 457.80 405.19 450.25 C 415.04 442.17 420.57 429.59 421.14 416.97 C 421.18 395.21 421.14 373.45 421.16 351.69 C 430.80 351.45 440.57 352.54 450.10 350.68 C 467.64 347.91 483.07 335.20 489.63 318.76 C 496.17 303.24 494.66 284.58 485.85 270.24 C 479.09 258.45 467.14 250.22 454.17 246.63 C 443.37 243.85 432.13 244.95 421.11 244.84 C 421.21 223.24 421.13 201.64 421.15 180.04 C 420.66 168.83 416.57 157.48 408.51 149.48 C 399.76 140.11 386.68 135.32 373.98 135.74 C 353.33 135.78 332.69 135.70 312.05 135.78 C 311.64 125.17 313.24 114.34 310.44 103.96 C 307.46 91.50 300.04 79.86 289.30 72.71 C 274.83 62.53 255.15 60.31 238.75 66.90 Z" />
</g>
<g id="#ffffffff">
<path fill="#ffffff" opacity="1.00" d=" M 227.34 83.37 C 236.71 74.34 250.17 70.07 263.06 71.36 C 279.02 72.54 293.74 83.12 300.09 97.79 C 304.04 106.27 304.20 115.82 304.08 124.99 C 304.03 131.23 304.19 137.48 303.97 143.71 C 328.64 143.80 353.32 143.69 378.00 143.77 C 391.52 144.19 404.37 152.81 409.80 165.22 C 412.51 170.74 413.11 176.96 413.19 183.02 C 413.15 206.28 413.20 229.53 413.16 252.78 C 422.44 252.78 431.72 252.72 441.00 252.80 C 451.08 253.04 461.14 256.40 468.99 262.80 C 479.51 271.19 485.81 284.52 485.67 297.97 C 485.87 308.83 481.98 319.69 474.91 327.94 C 466.59 337.77 453.84 343.55 441.00 343.67 C 431.69 343.75 422.39 343.65 413.08 343.71 C 413.30 365.83 413.11 387.94 413.18 410.06 C 413.23 416.89 413.07 423.98 410.22 430.32 C 404.94 443.20 391.77 452.48 377.78 452.65 C 354.38 452.72 330.98 452.67 307.59 452.67 C 307.61 443.45 307.61 434.23 307.59 425.01 C 307.63 413.21 303.05 401.52 295.20 392.74 C 286.83 383.23 274.58 377.38 261.97 376.48 C 247.52 375.43 232.70 381.16 222.83 391.80 C 214.81 400.18 210.12 411.57 209.53 423.13 C 209.38 433.00 209.60 442.87 209.41 452.75 C 186.03 452.57 162.65 452.78 139.27 452.64 C 120.21 452.54 103.48 435.12 104.15 416.06 C 104.11 393.17 104.20 370.27 104.11 347.38 C 113.05 347.32 122.00 347.35 130.95 347.36 C 143.91 347.44 156.89 342.28 166.03 333.04 C 178.28 321.01 183.38 302.23 178.80 285.67 C 173.92 265.99 155.65 250.63 135.38 249.38 C 124.98 249.03 114.57 249.30 104.17 249.22 C 104.11 226.46 104.16 203.70 104.15 180.94 C 104.04 173.85 105.88 166.69 109.78 160.73 C 116.16 150.48 127.94 143.90 140.01 143.75 C 164.43 143.70 188.84 143.82 213.25 143.69 C 213.18 134.46 213.21 125.22 213.23 115.99 C 213.13 103.80 218.39 91.66 227.34 83.37 Z" />
</g>
</svg>
