<?xml version="1.0" encoding="UTF-8" ?>
<!DOCTYPE svg PUBLIC "-//W3C//DTD SVG 1.1//EN" "http://www.w3.org/Graphics/SVG/1.1/DTD/svg11.dtd">
<svg width="549pt" height="549pt" viewBox="0 0 549 549" version="1.1" xmlns="http://www.w3.org/2000/svg">
<g id="#030303ff">
<path fill="#030303" opacity="1.00" d=" M 44.55 5.79 C 48.00 5.14 51.51 5.00 55.01 4.99 C 201.67 5.00 348.33 5.00 494.98 4.99 C 510.31 4.95 525.84 11.38 535.73 23.27 C 543.68 32.58 547.74 44.80 548.00 56.95 C 548.00 196.31 548.00 335.66 548.00 475.02 C 547.72 485.09 549.01 495.39 546.15 505.20 C 542.29 521.85 529.18 535.88 512.93 541.08 C 507.14 542.86 501.14 544.13 495.06 544.01 C 348.03 544.00 201.00 544.01 53.97 544.00 C 39.34 544.03 24.58 538.18 14.63 527.31 C 8.90 520.83 4.56 513.03 2.70 504.54 C 0.50 496.89 1.05 488.87 1.00 481.01 C 1.00 340.00 0.99 198.99 1.00 57.98 C 0.99 44.30 6.05 30.53 15.63 20.65 C 23.35 12.73 33.67 7.61 44.55 5.79 M 22.85 27.80 C 14.96 35.69 10.77 46.91 11.06 58.03 C 11.04 200.69 11.07 343.35 11.05 486.01 C 11.05 491.70 10.88 497.48 12.47 503.01 C 16.08 517.20 27.83 528.94 42.03 532.53 C 47.85 534.20 53.96 533.89 59.95 533.92 C 204.29 533.92 348.63 533.91 492.98 533.92 C 498.37 534.02 503.84 533.66 508.98 531.91 C 522.26 527.72 533.03 516.39 536.43 502.87 C 537.91 498.05 537.73 492.98 537.73 488.00 C 537.71 344.01 537.76 200.01 537.71 56.01 C 537.92 50.43 536.30 45.02 534.29 39.87 C 529.06 28.31 518.46 19.20 506.01 16.39 C 501.79 15.12 497.34 15.27 492.98 15.23 C 346.32 15.26 199.66 15.21 52.99 15.25 C 41.79 15.03 30.59 19.69 22.85 27.80 Z" />
<path fill="#030303" opacity="1.00" d=" M 239.49 79.63 C 262.38 70.57 291.22 79.63 303.83 101.03 C 308.55 108.51 311.09 117.21 312.01 125.97 C 312.13 133.57 312.03 141.17 312.05 148.78 C 332.71 148.70 353.36 148.78 374.02 148.74 C 386.73 148.33 399.81 153.14 408.55 162.52 C 417.51 171.47 421.58 184.49 421.16 196.98 C 421.12 217.26 421.22 237.55 421.11 257.84 C 433.48 257.97 446.30 256.53 458.16 260.90 C 473.11 266.00 485.49 278.08 490.52 293.10 C 495.18 306.20 494.71 321.15 488.75 333.76 C 483.26 346.12 472.66 355.97 460.13 360.97 C 447.75 365.97 434.18 364.56 421.15 364.69 C 421.13 386.79 421.21 408.90 421.11 431.00 C 420.30 439.65 417.79 448.50 412.38 455.45 C 404.28 467.03 390.10 473.90 376.03 473.70 C 353.73 473.70 331.42 473.73 309.11 473.69 C 304.68 473.68 299.94 470.81 299.78 465.99 C 299.23 456.33 299.76 446.62 299.53 436.94 C 299.35 418.28 284.53 401.00 266.08 398.14 C 255.80 396.20 244.75 398.24 236.02 404.06 C 227.20 409.70 220.93 418.92 218.46 429.04 C 216.48 440.89 217.95 452.95 217.37 464.89 C 217.07 467.05 216.69 469.44 215.00 471.00 C 212.91 473.04 209.82 473.70 206.99 473.73 C 184.65 473.66 162.31 473.76 139.98 473.68 C 124.75 473.64 109.81 465.00 102.23 451.79 C 100.34 448.33 98.62 444.74 97.56 440.92 C 95.67 433.42 96.18 425.63 96.12 417.97 C 96.14 399.28 96.08 380.59 96.15 361.90 C 96.27 357.44 99.05 352.34 104.00 352.13 C 115.69 351.62 127.43 352.46 139.11 351.69 C 149.21 349.75 158.58 343.87 164.58 335.50 C 174.60 322.05 174.98 302.26 165.54 288.41 C 158.39 277.71 145.99 270.44 133.02 270.30 C 124.01 270.18 115.00 270.29 105.99 270.25 C 103.52 270.18 100.82 269.75 99.01 267.91 C 96.65 265.64 96.04 262.20 96.10 259.06 C 96.15 240.04 96.11 221.02 96.12 202.00 C 96.16 196.32 95.86 190.60 96.90 184.98 C 99.58 170.05 110.57 156.89 124.87 151.74 C 130.05 149.98 135.46 148.60 140.97 148.74 C 162.30 148.77 183.63 148.73 204.95 148.76 C 205.15 138.32 204.07 127.67 206.62 117.43 C 210.03 100.28 223.07 85.52 239.49 79.63 M 227.35 96.36 C 218.41 104.63 213.13 116.76 213.23 128.94 C 213.17 138.22 213.25 147.49 213.20 156.77 C 189.16 156.70 165.12 156.77 141.08 156.73 C 132.72 156.66 124.36 159.49 117.86 164.77 C 109.31 171.41 104.10 182.11 104.16 192.94 C 104.14 216.04 104.11 239.13 104.17 262.23 C 113.45 262.22 122.74 262.19 132.02 262.24 C 142.84 262.27 153.58 266.11 162.01 272.89 C 171.06 280.04 177.34 290.53 179.52 301.84 C 182.80 317.79 177.33 335.22 165.57 346.48 C 156.48 355.44 143.72 360.42 130.99 360.36 C 122.04 360.34 113.08 360.34 104.12 360.36 C 104.22 384.06 104.02 407.77 104.22 431.48 C 104.81 449.42 120.69 465.15 138.63 465.62 C 162.22 465.81 185.83 465.55 209.42 465.75 C 209.61 455.64 209.35 445.54 209.56 435.44 C 210.33 424.13 214.96 413.02 222.83 404.81 C 232.69 394.17 247.52 388.43 261.98 389.49 C 274.59 390.39 286.85 396.24 295.22 405.77 C 303.05 414.54 307.63 426.21 307.58 437.99 C 307.60 447.20 307.64 456.42 307.56 465.64 C 330.95 465.72 354.35 465.70 377.75 465.65 C 392.02 465.50 405.42 455.84 410.52 442.59 C 413.65 435.16 413.15 426.91 413.18 419.02 C 413.12 398.25 413.30 377.48 413.09 356.72 C 422.40 356.65 431.71 356.76 441.02 356.67 C 454.56 356.55 468.00 350.10 476.24 339.29 C 482.70 331.05 486.03 320.49 485.66 310.03 C 485.55 296.27 478.62 282.77 467.51 274.65 C 459.62 268.75 449.78 265.86 439.99 265.77 C 431.05 265.76 422.11 265.74 413.17 265.79 C 413.19 243.52 413.17 221.25 413.18 198.98 C 413.27 191.96 412.95 184.66 409.81 178.24 C 404.26 165.51 390.90 156.79 377.03 156.74 C 352.69 156.74 328.36 156.75 304.02 156.74 C 304.15 148.81 304.05 140.89 304.09 132.97 C 304.07 125.22 303.23 117.28 299.82 110.22 C 293.23 95.49 278.12 85.07 261.99 84.28 C 249.43 83.28 236.46 87.59 227.35 96.36 Z" />
</g>
<g id="#ffc000ff">
<path fill="#ffc000" opacity="1.00" d=" M 22.85 27.80 C 30.59 19.69 41.79 15.03 52.99 15.25 C 199.66 15.21 346.32 15.26 492.98 15.23 C 497.34 15.27 501.79 15.12 506.01 16.39 C 518.46 19.20 529.06 28.31 534.29 39.87 C 536.30 45.02 537.92 50.43 537.71 56.01 C 537.76 200.01 537.71 344.01 537.73 488.00 C 537.73 492.98 537.91 498.05 536.43 502.87 C 533.03 516.39 522.26 527.72 508.98 531.91 C 503.84 533.66 498.37 534.02 492.98 533.92 C 348.63 533.91 204.29 533.92 59.95 533.92 C 53.96 533.89 47.85 534.20 42.03 532.53 C 27.83 528.94 16.08 517.20 12.47 503.01 C 10.88 497.48 11.05 491.70 11.05 486.01 C 11.07 343.35 11.04 200.69 11.06 58.03 C 10.77 46.91 14.96 35.69 22.85 27.80 M 239.49 79.63 C 223.07 85.52 210.03 100.28 206.62 117.43 C 204.07 127.67 205.15 138.32 204.95 148.76 C 183.63 148.73 162.30 148.77 140.97 148.74 C 135.46 148.60 130.05 149.98 124.87 151.74 C 110.57 156.89 99.58 170.05 96.90 184.98 C 95.86 190.60 96.16 196.32 96.12 202.00 C 96.11 221.02 96.15 240.04 96.10 259.06 C 96.04 262.20 96.65 265.64 99.01 267.91 C 100.82 269.75 103.52 270.18 105.99 270.25 C 115.00 270.29 124.01 270.18 133.02 270.30 C 145.99 270.44 158.39 277.71 165.54 288.41 C 174.98 302.26 174.60 322.05 164.58 335.50 C 158.58 343.87 149.21 349.75 139.11 351.69 C 127.43 352.46 115.69 351.62 104.00 352.13 C 99.05 352.34 96.27 357.44 96.15 361.90 C 96.08 380.59 96.14 399.28 96.12 417.97 C 96.18 425.63 95.67 433.42 97.56 440.92 C 98.62 444.74 100.34 448.33 102.23 451.79 C 109.81 465.00 124.75 473.64 139.98 473.68 C 162.31 473.76 184.65 473.66 206.99 473.73 C 209.82 473.70 212.91 473.04 215.00 471.00 C 216.69 469.44 217.07 467.05 217.37 464.89 C 217.95 452.95 216.48 440.89 218.46 429.04 C 220.93 418.92 227.20 409.70 236.02 404.06 C 244.75 398.24 255.80 396.20 266.08 398.14 C 284.53 401.00 299.35 418.28 299.53 436.94 C 299.76 446.62 299.23 456.33 299.78 465.99 C 299.94 470.81 304.68 473.68 309.11 473.69 C 331.42 473.73 353.73 473.70 376.03 473.70 C 390.10 473.90 404.28 467.03 412.38 455.45 C 417.79 448.50 420.30 439.65 421.11 431.00 C 421.21 408.90 421.13 386.79 421.15 364.69 C 434.18 364.56 447.75 365.97 460.13 360.97 C 472.66 355.97 483.26 346.12 488.75 333.76 C 494.71 321.15 495.18 306.20 490.52 293.10 C 485.49 278.08 473.11 266.00 458.16 260.90 C 446.30 256.53 433.48 257.97 421.11 257.84 C 421.22 237.55 421.12 217.26 421.16 196.98 C 421.58 184.49 417.51 171.47 408.55 162.52 C 399.81 153.14 386.73 148.33 374.02 148.74 C 353.36 148.78 332.71 148.70 312.05 148.78 C 312.03 141.17 312.13 133.57 312.01 125.97 C 311.09 117.21 308.55 108.51 303.83 101.03 C 291.22 79.63 262.38 70.57 239.49 79.63 Z" />
</g>
<g id="#ffffffff">
<path fill="#ffffff" opacity="1.00" d=" M 227.35 96.36 C 236.46 87.59 249.43 83.28 261.99 84.28 C 278.12 85.07 293.23 95.49 299.82 110.22 C 303.23 117.28 304.07 125.22 304.09 132.97 C 304.05 140.89 304.15 148.81 304.02 156.74 C 328.36 156.75 352.69 156.74 377.03 156.74 C 390.90 156.79 404.26 165.51 409.81 178.24 C 412.95 184.66 413.27 191.96 413.18 198.98 C 413.17 221.25 413.19 243.52 413.17 265.79 C 422.11 265.74 431.05 265.76 439.99 265.77 C 449.78 265.86 459.62 268.75 467.51 274.65 C 478.62 282.77 485.55 296.27 485.66 310.03 C 486.03 320.49 482.70 331.05 476.24 339.29 C 468.00 350.10 454.56 356.55 441.02 356.67 C 431.71 356.76 422.40 356.65 413.09 356.72 C 413.30 377.48 413.12 398.25 413.18 419.02 C 413.15 426.91 413.65 435.16 410.52 442.59 C 405.42 455.84 392.02 465.50 377.75 465.65 C 354.35 465.70 330.95 465.72 307.56 465.64 C 307.64 456.42 307.60 447.20 307.58 437.99 C 307.63 426.21 303.05 414.54 295.22 405.77 C 286.85 396.24 274.59 390.39 261.98 389.49 C 247.52 388.43 232.69 394.17 222.83 404.81 C 214.96 413.02 210.33 424.13 209.56 435.44 C 209.35 445.54 209.61 455.64 209.42 465.75 C 185.83 465.55 162.22 465.81 138.63 465.62 C 120.69 465.15 104.81 449.42 104.22 431.48 C 104.02 407.77 104.22 384.06 104.12 360.36 C 113.08 360.34 122.04 360.34 130.99 360.36 C 143.72 360.42 156.48 355.44 165.57 346.48 C 177.33 335.22 182.80 317.79 179.52 301.84 C 177.34 290.53 171.06 280.04 162.01 272.89 C 153.58 266.11 142.84 262.27 132.02 262.24 C 122.74 262.19 113.45 262.22 104.17 262.23 C 104.11 239.13 104.14 216.04 104.16 192.94 C 104.10 182.11 109.31 171.41 117.86 164.77 C 124.36 159.49 132.72 156.66 141.08 156.73 C 165.12 156.77 189.16 156.70 213.20 156.77 C 213.25 147.49 213.17 138.22 213.23 128.94 C 213.13 116.76 218.41 104.63 227.35 96.36 Z" />
</g>
</svg>
